<svg width="55" height="55" viewBox="0 0 55 55" fill="none" xmlns="http://www.w3.org/2000/svg">
<circle cx="21.7465" cy="22.7465" r="21.7465" fill="#F2BDEC"/>
<circle cx="40.3863" cy="12.6502" r="11.2616" fill="#E57CD8"/>
<path d="M40.7653 19.1543C40.5703 19.1543 40.4107 19.0878 40.2866 18.9548C40.1624 18.8307 40.1004 18.6755 40.1004 18.4894V17.585C39.5596 17.5496 39.0764 17.4654 38.6508 17.3324C38.2341 17.1905 37.8751 17.0354 37.5736 16.8669C37.3697 16.7517 37.2411 16.5965 37.188 16.4015C37.1436 16.2064 37.1569 16.0202 37.2278 15.8429C37.2988 15.6656 37.4185 15.5415 37.5869 15.4706C37.7554 15.3996 37.9548 15.4307 38.1854 15.5636C38.4336 15.7055 38.7572 15.8429 39.1562 15.9759C39.564 16.1 40.0516 16.1621 40.619 16.1621C41.284 16.1621 41.7627 16.0468 42.0553 15.8163C42.3479 15.5769 42.4941 15.2799 42.4941 14.9253C42.4941 14.6327 42.3922 14.3934 42.1883 14.2072C41.9844 14.021 41.6209 13.8703 41.0978 13.755L39.6881 13.4491C38.0834 13.1034 37.281 12.2611 37.281 10.9224C37.281 10.1777 37.5337 9.55263 38.0391 9.04727C38.5533 8.53306 39.2404 8.22275 40.1004 8.11637V7.17216C40.1004 6.98597 40.1624 6.83082 40.2866 6.7067C40.4107 6.57371 40.5703 6.50722 40.7653 6.50722C40.9515 6.50722 41.1066 6.57371 41.2308 6.7067C41.3637 6.83082 41.4302 6.98597 41.4302 7.17216V8.10307C41.7849 8.13853 42.1572 8.22275 42.5473 8.35574C42.9463 8.48873 43.2921 8.67048 43.5846 8.90099C43.7531 9.03398 43.8506 9.18913 43.8772 9.36644C43.9038 9.53489 43.8728 9.69448 43.7841 9.8452C43.7043 9.98705 43.5758 10.0846 43.3985 10.1378C43.23 10.1821 43.0305 10.1378 42.8 10.0048C42.5429 9.85406 42.2548 9.73438 41.9356 9.64572C41.6164 9.54819 41.2352 9.49943 40.7919 9.49943C40.2245 9.49943 39.7768 9.62799 39.4487 9.88509C39.1296 10.1333 38.97 10.4614 38.97 10.8692C38.97 11.1706 39.0675 11.4144 39.2626 11.6006C39.4576 11.7779 39.7901 11.9198 40.26 12.0262L41.7095 12.3454C42.5606 12.5315 43.1857 12.8285 43.5846 13.2364C43.9836 13.6353 44.1831 14.1628 44.1831 14.8189C44.1831 15.5636 43.926 16.1754 43.4118 16.6541C42.9064 17.124 42.2459 17.421 41.4302 17.5452V18.4894C41.4302 18.6755 41.3682 18.8307 41.2441 18.9548C41.1199 19.0878 40.9604 19.1543 40.7653 19.1543Z" fill="#2C1338"/>
<path d="M25.8832 27.2876C20.6408 30.9767 17.5341 30.7178 15.3983 30.5884C7.50227 33.5006 -3.47451 41.3056 15.7866 49.2275C39.8631 59.1299 47.6257 48.7534 49.9596 46.5092C55.0079 41.6551 54.4254 24.7634 53.8429 22.6276C53.3769 20.919 51.4482 20.4918 50.5421 20.4918C47.2413 19.9086 45.7527 22.8218 45.688 24.7634C45.688 24.7634 46.4647 34.2775 45.688 37.19C45.0667 39.5199 42.5814 40.4908 41.4164 40.6849C39.6689 40.9438 35.3973 40.8014 32.2906 38.1608C29.184 35.5201 30.6079 33.4361 31.7081 32.7242L37.7273 28.8409C38.5039 27.9995 39.5912 25.8508 37.7273 23.9868C35.8633 22.1228 34.1028 22.304 33.4556 22.6276L25.8832 27.2876Z" fill="#412A4C"/>
<rect x="1.94141" y="30.124" width="10.4849" height="19.4165" rx="1.05508" fill="#E57CD8"/>
</svg>
