<svg width="53" height="53" viewBox="0 0 53 53" fill="none" xmlns="http://www.w3.org/2000/svg">
<ellipse cx="26.4073" cy="31.7543" rx="19.3353" ry="21.2455" fill="#FEFBFA"/>
<path d="M18.4824 39.4186C20.7012 43.2497 28.9425 48.1258 35.282 39.0703" stroke="#F2BDEC" stroke-width="1.75219" stroke-linecap="round"/>
<ellipse cx="26.4073" cy="31.7543" rx="19.3353" ry="21.2455" fill="#FEFBFA"/>
<path d="M18.4824 39.4186C20.7012 43.2497 28.9425 48.1258 35.282 39.0703" stroke="#F2BDEC" stroke-width="1.75219" stroke-linecap="round"/>
<ellipse cx="26.4073" cy="31.7543" rx="19.3353" ry="21.2455" fill="#FEFBFA"/>
<path d="M18.4824 39.4186C20.7012 43.2497 28.9425 48.1258 35.282 39.0703" stroke="#F2BDEC" stroke-width="1.75219" stroke-linecap="round"/>
<path d="M12.0688 30.9772C7.21499 32.1624 7.13263 35.0622 7.53366 36.5942C8.36942 38.0969 7.82446 37.7051 7.53366 36.5942C6.93278 35.5139 5.61819 33.4543 2.98228 29.9787C-11.0502 11.4761 28.576 -0.639502 36.1481 0.0261116C46.1433 0.0261116 61.5905 11.6079 47.052 23.9883C32.5135 36.3687 36.1481 20.9929 29.3332 20.9929C29.3332 20.9929 6.61686 16.2005 12.0688 30.9772Z" fill="#E57CD8"/>
</svg>
