<svg width="53" height="53" viewBox="0 0 53 53" fill="none" xmlns="http://www.w3.org/2000/svg">
<rect y="3.17969" width="53" height="49.82" rx="3.09489" fill="#F5CBEF"/>
<path fill-rule="evenodd" clip-rule="evenodd" d="M0 6.19059C0 4.48133 1.38563 3.0957 3.09489 3.0957H49.9051C51.6144 3.0957 53 4.48133 53 6.19059V15.0884H0V6.19059ZM13.54 9.28574C13.54 11.2087 11.9811 12.7675 10.0582 12.7675C8.13529 12.7675 6.57646 11.2087 6.57646 9.28574C6.57646 7.36282 8.13529 5.80398 10.0582 5.80398C11.9811 5.80398 13.54 7.36282 13.54 9.28574ZM42.5546 12.7675C44.4775 12.7675 46.0364 11.2087 46.0364 9.28574C46.0364 7.36282 44.4775 5.80398 42.5546 5.80398C40.6317 5.80398 39.0729 7.36282 39.0729 9.28574C39.0729 11.2087 40.6317 12.7675 42.5546 12.7675Z" fill="#E57CD8"/>
<rect x="7.7373" width="4.64234" height="12.3796" rx="2.32117" fill="#412A4C"/>
<rect x="40.2336" width="4.64234" height="12.3796" rx="2.32117" fill="#412A4C"/>
<circle cx="6.32787" cy="27.5273" r="2.08788" fill="#FDE5DC"/>
<circle cx="13.1538" cy="27.5273" r="2.08788" fill="#FDE5DC"/>
<circle cx="19.9795" cy="27.5273" r="2.08788" fill="#FDE5DC"/>
<circle cx="26.8054" cy="27.5273" r="2.08788" fill="#FDE5DC"/>
<circle cx="33.6311" cy="27.5273" r="2.08788" fill="#FDE5DC"/>
<circle cx="40.457" cy="27.5273" r="2.08788" fill="#FDE5DC"/>
<circle cx="47.2827" cy="27.5273" r="2.08788" fill="#FDE5DC"/>
<circle cx="40.457" cy="21.168" r="2.08788" fill="#FDE5DC"/>
<circle cx="47.2827" cy="21.168" r="2.08788" fill="#FDE5DC"/>
<circle cx="6.32787" cy="33.8877" r="2.08788" fill="#FDE5DC"/>
<circle cx="13.1538" cy="33.8877" r="2.08788" fill="#FDE5DC"/>
<circle cx="19.9795" cy="33.8877" r="2.08788" fill="#FDE5DC"/>
<circle cx="26.8054" cy="33.8877" r="2.08788" fill="#FDE5DC"/>
<circle cx="33.6311" cy="33.8877" r="2.08788" fill="#FDE5DC"/>
<circle cx="40.457" cy="33.8877" r="2.08788" fill="#FDE5DC"/>
<circle cx="47.2827" cy="33.8877" r="2.08788" fill="#FDE5DC"/>
<circle cx="6.32787" cy="40.248" r="2.08788" fill="#FDE5DC"/>
<circle cx="13.1538" cy="40.248" r="2.08788" fill="#FDE5DC"/>
<circle cx="19.9795" cy="40.248" r="2.08788" fill="#FDE5DC"/>
<circle cx="26.8054" cy="40.248" r="2.08788" fill="#FDE5DC"/>
<circle cx="33.6311" cy="40.248" r="2.08788" fill="#FDE5DC"/>
<circle cx="40.457" cy="40.248" r="2.08788" fill="#FDE5DC"/>
<circle cx="47.2827" cy="40.248" r="2.08788" fill="#FDE5DC"/>
<circle cx="6.32787" cy="46.6084" r="2.08788" fill="#FDE5DC"/>
<circle cx="13.1538" cy="46.6084" r="2.08788" fill="#FDE5DC"/>
<circle cx="19.9795" cy="46.6084" r="2.08788" fill="#FDE5DC"/>
<circle cx="26.8054" cy="46.6084" r="2.08788" fill="#FDE5DC"/>
<path d="M42.7922 41.2197C42.6418 41.1244 42.4602 41.0914 42.286 41.1277C42.1117 41.164 41.9584 41.2667 41.8585 41.4142C41.4359 42.0609 40.8591 42.5921 40.1802 42.9597C39.5013 43.3273 38.7416 43.5198 37.9698 43.5198C37.198 43.5198 36.4384 43.3273 35.7594 42.9597C35.0805 42.5921 34.5038 42.0609 34.0812 41.4142C33.9808 41.2699 33.8282 41.1705 33.6558 41.1371C33.4833 41.1038 33.3047 41.139 33.1578 41.2354C33.0109 41.3318 32.9074 41.4818 32.8692 41.6534C32.831 41.8251 32.8611 42.0049 32.9532 42.1546C33.4977 42.9898 34.2415 43.6759 35.1175 44.1508C35.9934 44.6257 36.9738 44.8744 37.9698 44.8744C38.9659 44.8744 39.9463 44.6257 40.8222 44.1508C41.6981 43.6759 42.442 42.9898 42.9864 42.1546C43.0844 42.0048 43.119 41.8222 43.0826 41.6469C43.0461 41.4715 42.9417 41.3179 42.7922 41.2197Z" fill="#54465E"/>
<path d="M41.6803 29.5727C41.5909 29.5198 41.5136 29.4486 41.4535 29.3638C41.3934 29.279 41.3518 29.1825 41.3315 29.0805C41.3111 28.9786 41.3124 28.8734 41.3353 28.772C41.3582 28.6706 41.4022 28.5751 41.4644 28.4919L41.5292 28.4108L41.5562 28.3784L41.6371 28.2811C41.8996 27.9499 42.1191 27.5868 42.2902 27.2002C42.5638 26.5654 42.7052 25.8813 42.7057 25.1898C42.7066 24.7311 42.643 24.2744 42.5169 23.8334C42.3288 23.1661 42.0061 22.5445 41.5686 22.007C41.1311 21.4696 40.5881 21.0277 39.9733 20.7088C39.3585 20.3898 38.6848 20.2006 37.994 20.1527C37.3032 20.1049 36.61 20.1994 35.9571 20.4305C35.3043 20.6616 34.7057 21.0244 34.1985 21.4964C33.6912 21.9684 33.286 22.5395 33.008 23.1746C32.73 23.8096 32.5851 24.495 32.5821 25.1883C32.5792 25.8817 32.7183 26.5683 32.9909 27.2056C33.1665 27.6022 33.3894 27.976 33.6548 28.3189L33.6872 28.3568L33.8005 28.5135C33.862 28.5978 33.9051 28.6941 33.9268 28.7963C33.9485 28.8984 33.9484 29.0039 33.9265 29.106C33.9045 29.2081 33.8613 29.3044 33.7996 29.3885C33.7379 29.4727 33.6591 29.5428 33.5684 29.5943L33.25 29.7781C31.9862 30.3937 30.8647 31.2669 29.9576 32.3418C29.0505 33.4167 28.3777 34.6696 27.9824 36.02C28.4416 36.0889 28.9052 36.125 29.3695 36.1281C31.1556 36.1269 32.9135 35.6819 34.4856 34.8331C36.0577 33.9842 37.3949 32.7579 38.3773 31.2643C39.2818 32.8047 40.572 34.0821 42.1206 34.9702C43.6692 35.8583 45.4224 36.3263 47.2069 36.3281H47.3904C47.0125 34.8422 46.3019 33.462 45.3127 32.2916C44.3234 31.1213 43.0813 30.1915 41.6803 29.5727Z" fill="#68372E"/>
<path fill-rule="evenodd" clip-rule="evenodd" d="M47.1915 36.267H47.375C47.5845 37.0954 47.6879 37.9471 47.6826 38.8016C47.6853 38.8448 47.6853 38.8881 47.6826 38.9313C47.6458 41.5765 46.5696 44.1006 44.6872 45.9569L43.3379 47.3079C42.8817 47.7706 42.571 48.3571 42.4443 48.9949C42.3177 49.6326 42.3806 50.2935 42.6253 50.8958C42.87 51.4981 43.2858 52.0152 43.8211 52.3832C44.189 52.6361 44.6023 52.811 45.0355 52.8996H30.115C32.6833 52.5271 33.8356 49.2014 31.9015 47.2647L30.5576 45.919C29.6071 44.9832 28.8526 43.8669 28.3383 42.6355C27.8239 41.4041 27.5601 40.0823 27.5622 38.7476C27.5594 38.7026 27.5594 38.6575 27.5622 38.6125C27.5774 37.7102 27.7136 36.8141 27.967 35.9482C28.4262 36.017 28.8897 36.0531 29.354 36.0562C31.1401 36.055 32.898 35.6101 34.4701 34.7612C36.0423 33.9123 37.3794 32.6861 38.3618 31.1924C39.2649 32.7348 40.5546 34.0143 42.1033 34.9044C43.6519 35.7944 45.4059 36.2641 47.1915 36.267ZM40.8229 44.1485C41.6988 43.6736 42.4427 42.9875 42.9871 42.1523C43.0851 42.0025 43.1197 41.8198 43.0832 41.6445C43.0468 41.4692 42.9423 41.3156 42.7928 41.2173C42.6424 41.122 42.4609 41.089 42.2866 41.1253C42.1124 41.1616 41.9591 41.2644 41.8591 41.4119C41.4366 42.0586 40.8598 42.5898 40.1809 42.9574C39.502 43.325 38.7423 43.5175 37.9705 43.5175C37.1987 43.5175 36.439 43.325 35.7601 42.9574C35.0812 42.5898 34.5044 42.0586 34.0819 41.4119C33.9815 41.2676 33.8289 41.1682 33.6564 41.1348C33.484 41.1014 33.3054 41.1367 33.1585 41.2331C33.0116 41.3295 32.9081 41.4794 32.8699 41.6511C32.8317 41.8227 32.8618 42.0025 32.9539 42.1523C33.4984 42.9875 34.2422 43.6736 35.1181 44.1485C35.9941 44.6233 36.9744 44.872 37.9705 44.872C38.9666 44.872 39.9469 44.6233 40.8229 44.1485Z" fill="#CD9460"/>
</svg>
